<?xml version="1.0" encoding="utf-8"?>
<!-- Generator: Adobe Illustrator 22.0.1, SVG Export Plug-In . SVG Version: 6.00 Build 0)  -->
<svg version="1.1" id="レイヤー_2" xmlns="http://www.w3.org/2000/svg" xmlns:xlink="http://www.w3.org/1999/xlink" x="0px"
	 y="0px" viewBox="0 0 480 480" style="enable-background:new 0 0 480 480;" xml:space="preserve">
<style type="text/css">
	.st0{fill:none;stroke:#C30D23;stroke-miterlimit:10;}
	.st1{fill:#323333;}
	.st2{fill:#FFFFFF;}
</style>
<path class="st0" d="M240.1,2c0,0-144.8-5.1-157.6,159.4c0,0,11.5,195.1-36.4,299.7c0,0,8.3,29.3,74-21.7c0,0,12.1,33.2,35.1,33.2
	s31.9-14.7,40.8-31.2c0,0,15.4,37,44.1,37"/>
<path class="st0" d="M238.3,2c0,0,144.8-5.1,157.6,159.4c0,0-11.5,195.1,36.4,299.7c0,0-8.3,29.3-74-21.7c0,0-12.1,33.2-35.1,33.2
	c-23,0-31.9-14.7-40.8-31.2c0,0-15.4,37-44.1,37"/>
<path class="st0" d="M196.1,441.4c0,0,15.4,37,44.1,37"/>
<path class="st1" d="M396.1,162.1C383.9,5.3,251.9,2.6,239.5,2.7C227,2.6,95,5.3,82.8,162.1c0,0,11.5,195.1-36.4,299.7
	c0,0,8.3,29.3,74-21.7c0,0,12.1,33.2,35.1,33.2s31.9-14.7,40.8-31.2c0,0,14.8,35.3,42.2,36.9v0.1c0.3,0,0.6,0,0.9,0
	c0.3,0,0.6,0,0.9,0V479c27.4-1.6,42.2-36.9,42.2-36.9c8.9,16.6,17.9,31.2,40.8,31.2c23,0,35.1-33.2,35.1-33.2
	c65.7,51,74,21.7,74,21.7C384.6,357.2,396.1,162.1,396.1,162.1z"/>
<circle class="st2" cx="173.7" cy="170.7" r="34.7"/>
<circle class="st2" cx="306.5" cy="170.7" r="34.7"/>
<path class="st2" d="M177.1,354.5v26.3h26.3l77.4-77.4L254.6,277L177.1,354.5z M301.1,283c2.7-2.7,2.7-7.1,0-9.9l-16.4-16.4
	c-2.7-2.7-7.1-2.7-9.9,0L262,269.6l26.3,26.3C288.3,295.8,301.1,283,301.1,283z"/>
</svg>
