<?xml version="1.0" encoding="utf-8"?>
<!-- Generator: Adobe Illustrator 22.0.1, SVG Export Plug-In . SVG Version: 6.00 Build 0)  -->
<svg version="1.1" id="レイヤー_2" xmlns="http://www.w3.org/2000/svg" xmlns:xlink="http://www.w3.org/1999/xlink" x="0px"
	 y="0px" viewBox="0 0 480 480" style="enable-background:new 0 0 480 480;" xml:space="preserve">
<style type="text/css">
	.st0{fill:none;stroke:#C30D23;stroke-miterlimit:10;}
	.st1{fill:#323333;}
	.st2{fill:#FFFFFF;}
</style>
<path class="st0" d="M240,41.8c0,0-120.7-4.3-131.3,132.8c0,0,9.6,162.6-30.3,249.7c0,0,6.9,24.4,61.6-18.1c0,0,10.1,27.6,29.2,27.6
	s26.6-12.2,34-26c0,0,12.9,30.8,36.7,30.8"/>
<path class="st0" d="M238.4,41.8c0,0,120.7-4.3,131.3,132.8c0,0-9.6,162.6,30.3,249.7c0,0-6.9,24.4-61.6-18.1
	c0,0-10.1,27.6-29.2,27.6s-26.6-12.2-34-26c0,0-12.9,30.8-36.7,30.8"/>
<path class="st0" d="M203.3,407.8c0,0,12.9,30.8,36.7,30.8"/>
<path class="st1" d="M369.9,175.2C359.8,44.6,249.8,42.3,239.4,42.4c-10.4-0.1-120.4,2.2-130.5,132.8c0,0,9.6,162.6-30.3,249.7
	c0,0,6.9,24.4,61.6-18.1c0,0,10.1,27.6,29.2,27.6s26.6-12.2,34-26c0,0,12.3,29.4,35.1,30.8v0.1c0.3,0,0.5,0,0.8,0c0.3,0,0.5,0,0.8,0
	v-0.1c22.8-1.3,35.1-30.8,35.1-30.8c7.4,13.8,14.9,26,34,26c19.1,0,29.2-27.6,29.2-27.6c54.7,42.5,61.6,18.1,61.6,18.1
	C360.4,337.8,369.9,175.2,369.9,175.2z"/>
<circle class="st2" cx="184.6" cy="182.3" r="28.9"/>
<circle class="st2" cx="295.3" cy="182.3" r="28.9"/>
<path class="st2" d="M187.5,335.5v21.9h21.9l64.5-64.5L252,270.9L187.5,335.5z M290.8,275.9c2.3-2.3,2.3-6,0-8.2L277.2,254
	c-2.3-2.3-6-2.3-8.2,0l-10.7,10.7l21.9,21.9C280.1,286.6,290.8,275.9,290.8,275.9z"/>
</svg>
